PathFileType	4	(X/Y/Z)	Patient4_TMGait_0pt3_01_right_21.trc.trc
DataRate	CameraRate	NumFrames	NumMarkers	Units	OrigDataRate	OrigDataStartFrame	OrigNumFrames
52.830188679245	52.830188679245	4	33	mm	52.830188679245	106	       141
Frame#	Time	Sacral			L.Shoulder			Chest			R.Shoulder			Neck			R.ASIS			L.ASIS			R.Thigh.Superior			R.Thigh.Lateral			R.Thigh.Inferior			R.Patella			L.Thigh.Superior			L.Thigh.Lateral			L.Thigh.Inferior			L.Patella			L.Shank.Superior			L.Shank.Lateral			L.Shank.Inferior			R.Shank.Superior			R.Shank.Lateral			R.Shank.Inferior			R.Heel			R.Midfoot.Superior			R.Midfoot.Lateral			R.Toe			L.Heel			L.Midfoot.Lateral			L.Midfoot.Superior			L.Toe			L.Elbow			L.Wrist			R.Elbow			R.Wrist			
		X1	Y1	Z1	X2	Y2	Z2	X3	Y3	Z3	X4	Y4	Z4	X5	Y5	Z5	X6	Y6	Z6	X7	Y7	Z7	X8	Y8	Z8	X9	Y9	Z9	X10	Y10	Z10	X11	Y11	Z11	X12	Y12	Z12	X13	Y13	Z13	X14	Y14	Z14	X15	Y15	Z15	X16	Y16	Z16	X17	Y17	Z17	X18	Y18	Z18	X19	Y19	Z19	X20	Y20	Z20	X21	Y21	Z21	X22	Y22	Z22	X23	Y23	Z23	X24	Y24	Z24	X25	Y25	Z25	X26	Y26	Z26	X27	Y27	Z27	X28	Y28	Z28	X29	Y29	Z29	X30	Y30	Z30	X31	Y31	Z31	X32	Y32	Z32	X33	Y33	Z33	

106	40.377500000000	743.177885824232	989.966224078792	441.581499005661	930.717317148519	1423.485341357934	272.439885996556	1020.063611486099	1354.448022463756	440.993939796249	922.806516760432	1424.516309748451	609.001104687770	906.131499039586	1484.741120470774	431.551782248887	967.808355409520	933.263118616983	571.648313467372	972.133186843510	952.975352590820	296.728812693664	1038.918312566844	746.354125623622	549.333414361207	981.150997002308	630.404441824787	618.558994041103	1069.484325203265	580.680986125660	542.792614704644	1072.459070688228	466.635300575533	569.900236490352	1027.124539721091	742.369687182945	344.190596651712	950.682071183733	616.125012776283	288.843859137433	1032.225417040844	546.270272051349	365.898562182943	1034.165713167191	472.207503670742	378.650614654223	993.702586686229	398.666195265012	371.247035113465	893.259279038291	296.777364174487	315.161256676354	915.398217391302	182.793139536672	392.659659175358	986.063342956635	402.415276105020	577.303576658781	855.350988021422	382.585079818131	629.304683628539	832.170504917882	271.708924679487	587.364668450927	627.930261046143	233.697943843676	543.811075229392	782.646198072200	155.923288600930	607.065903715714	670.426504456161	172.210555022109	626.887178119059	828.443735413941	37.156691669074	646.747690209102	764.377036557621	39.134219676439	425.298909272482	842.665782268262	36.443909265847	349.010585177466	925.908550940283	95.237529547359	381.818925494057	1054.617040130147	39.832976041982	357.933347916883	991.934481906810	1082.585366978539	140.533763207729	1131.049520258566	862.571889010595	162.375320845496	880.501945472128	1072.711200693063	717.377502402705	945.542642245162	821.711037282610	742.782781925077	
107	40.396428571429	741.936883124901	988.761003966802	439.288026238294	932.569303446125	1423.146743028732	273.226561766342	1019.336140893062	1353.428133456459	442.812692202086	919.590789329377	1422.761844589445	609.744116301268	905.951747863726	1483.860958351704	432.383032177727	965.718169110878	933.136736423449	571.382615297777	972.248863887905	952.018685571584	296.434023150423	1040.908882099267	749.309993566618	548.170861384337	986.793668117998	632.260056222166	617.678407739803	1075.833717637742	584.574008378871	541.312545546484	1081.998485602041	470.542209665282	568.641389277887	1026.634158643538	741.031135566196	344.449357578821	950.147770025901	614.798047261313	289.006707968059	1030.947770609154	544.851164423417	366.836029325419	1032.560739587811	470.646455213677	379.752031434981	991.275880750903	397.214006512476	372.052381960363	890.098419439092	296.212539019567	315.529237669036	910.697566839092	182.019695041880	393.013150329541	996.923004010365	404.568624964960	576.515016588313	866.564736959034	381.903040109361	628.222296554776	846.044851868032	270.402527402340	586.641357337275	642.656627075297	226.323299966841	542.836243919194	799.714533045084	154.706181425159	607.085645824823	687.032596665641	167.253018677299	626.585391779494	849.057034432602	37.755103040460	647.640300934604	758.635078515547	39.086806445202	425.263731657561	836.964062446325	36.404603973853	348.963670629732	920.200927724029	95.114768946744	381.917490479020	1048.924851527613	39.800168463807	357.900288445690	1002.030863624655	1085.327422865174	138.913011243999	1152.465522593612	872.645041147565	161.675987180138	860.836710259136	1072.976686564698	714.877160541313	909.864872708225	818.214688526954	739.879712447471	
108	40.415357142857	740.703909557174	988.099580956297	437.198887633767	934.619773184973	1423.176804254549	274.316064311005	1018.709279695235	1352.775963873840	444.940972149076	916.443262398097	1421.548240371883	610.644217281689	905.892986020042	1483.372640940511	433.440370918701	963.494217141984	933.339331869230	571.428238015481	972.185797776148	951.350147496173	296.543364972471	1042.161906295250	752.423553013178	547.366830485605	991.401724931851	634.433366629205	617.150207396301	1080.969950221199	588.625688618515	540.237499340596	1090.325438387522	474.957467821102	567.780980549532	1025.693266852076	739.829381145305	344.816218123363	948.885886436347	613.821121804042	289.187958764354	1028.820498871045	543.611517273956	367.663066903519	1030.003996599973	469.356499451352	380.711193226316	988.077318549729	396.084918275349	372.711971249907	886.357370189214	295.776923038384	315.817329732193	905.731403557947	181.419497058718	393.282586827591	1007.191792912914	406.924954663820	576.133625246607	877.728030550579	380.206324631614	627.760221742779	860.897005807938	268.057379370792	586.444449576141	659.065634789839	215.918505511322	542.706945370894	818.944955119643	152.225508755745	607.600816376544	705.961342396608	159.832735650346	627.003849268760	873.003119063442	38.058808761091	648.835832159332	752.885384347126	39.047436583370	425.228436516606	831.254689824243	36.366066272771	348.916809422103	914.481815012970	95.003140025413	381.983469124732	1043.227573126831	39.772191752333	357.867953763033	1011.963233697461	1088.701807599204	137.561273484711	1173.611576425718	884.151259042318	161.321216862358	841.619998686061	1074.507758325804	712.154469361010	875.824307231471	817.204524626395	736.475385771058	
109	40.434285714286	739.513178877319	988.047892568022	435.305847926862	936.884169677526	1423.633566389459	275.701060605991	1018.193196465289	1352.563792096463	447.373422463157	913.376256955645	1420.955965668018	611.690221734221	905.961347198578	1483.339176662507	434.709139226616	961.155048434765	933.927179862915	571.786765168102	972.015328219346	951.054123290312	297.050743585890	1042.665363240380	755.645241821034	546.973404940573	994.844732469586	636.863611067728	617.009830209456	1084.794250284996	592.727705186369	539.649893650618	1097.275716005987	479.808106013720	567.387397277220	1024.269882441828	738.792759160603	345.296177713142	946.831154411458	613.257179693924	289.362090499903	1025.740810282184	542.587217062879	368.353367901760	1026.374343100149	468.388868364050	381.491364958409	984.013285340549	395.333878782642	373.191001481338	881.969106212949	295.495940405431	315.999117530953	900.472614579232	181.023325985220	393.457570626251	1016.728323014144	409.473489398656	576.188821040493	888.811536888455	377.558755520294	627.954442980533	876.675523951154	264.850266421681	586.794173616944	677.337232153751	202.881741287256	543.415052139918	840.238814395413	148.692862463975	608.582196590673	727.251021469897	150.298815306115	628.100617842597	899.983330370205	38.232442522175	650.277961489189	747.130652221214	39.020746802590	425.189172870871	825.536252448905	36.330561717020	348.870321129509	908.751621528245	94.910798946069	382.011854173867	1037.523154579399	39.751919115563	357.837665622900	1021.731440568895	1092.728768810450	136.498936885614	1194.336588890806	897.100256607432	161.332469329850	823.108715703961	1077.287961926314	709.247460110502	843.804561544549	818.435740148887	732.698142880072	
